<svg width="40" height="40" viewBox="0 0 40 40" fill="none" xmlns="http://www.w3.org/2000/svg">
<g id="camera-slash-fill 1">
<path id="Vector" d="M36.25 12.5V30C36.2497 30.2439 36.2262 30.4871 36.1797 30.7265C36.1595 30.8417 36.1074 30.9489 36.0294 31.036C35.9513 31.123 35.8504 31.1864 35.7381 31.219C35.6258 31.2515 35.5066 31.2519 35.3941 31.2201C35.2815 31.1883 35.1802 31.1256 35.1016 31.039L13.4375 7.19998C13.3437 7.09687 13.287 6.96535 13.2766 6.82634C13.2661 6.68733 13.3024 6.5488 13.3797 6.43279L13.9641 5.55623C14.0779 5.38566 14.2319 5.2457 14.4125 5.1487C14.5932 5.05169 14.7949 5.00062 15 4.99998H25C25.2058 4.99985 25.4085 5.05055 25.5901 5.14759C25.7716 5.24463 25.9264 5.385 26.0406 5.55623L28.1688 8.74998H32.5C33.4946 8.74998 34.4484 9.14507 35.1517 9.84833C35.8549 10.5516 36.25 11.5054 36.25 12.5ZM33.425 32.9094C33.5377 33.0304 33.6253 33.1727 33.6826 33.3278C33.7399 33.483 33.7659 33.648 33.759 33.8133C33.7521 33.9785 33.7124 34.1408 33.6424 34.2906C33.5723 34.4405 33.4732 34.5749 33.3508 34.6861C33.2284 34.7974 33.0851 34.8832 32.9292 34.9387C32.7734 34.9942 32.6081 35.0182 32.4429 35.0093C32.2778 35.0004 32.116 34.9588 31.967 34.8869C31.818 34.8151 31.6848 34.7143 31.575 34.5906L30.8109 33.75H7.5C6.50544 33.75 5.55161 33.3549 4.84835 32.6516C4.14509 31.9484 3.75 30.9945 3.75 30V12.5C3.75 11.5054 4.14509 10.5516 4.84835 9.84833C5.55161 9.14507 6.50544 8.74998 7.5 8.74998H8.08281L6.575 7.09061C6.46229 6.96954 6.37473 6.8273 6.3174 6.67214C6.26007 6.51698 6.2341 6.35198 6.24101 6.18671C6.24791 6.02144 6.28755 5.85919 6.35763 5.70935C6.4277 5.55951 6.52682 5.42507 6.64923 5.31383C6.77165 5.20258 6.91493 5.11673 7.07076 5.06126C7.2266 5.0058 7.3919 4.98181 7.55707 4.9907C7.72225 4.99958 7.88401 5.04116 8.033 5.11303C8.18199 5.1849 8.31523 5.28562 8.425 5.40936L33.425 32.9094ZM23.125 25.3L15.6438 17.0687C14.7946 18.1129 14.3481 19.4269 14.385 20.7722C14.422 22.1175 14.9401 23.405 15.8453 24.4009C16.7505 25.3969 17.9828 26.0353 19.3185 26.2002C20.6542 26.3652 22.0047 26.0458 23.125 25.3Z" fill="#61738E"/>
</g>
</svg>
