<svg width="53" height="53" viewBox="0 0 53 53" fill="none" xmlns="http://www.w3.org/2000/svg">
<g id="monitor-fill 1">
<path id="Vector" d="M48.0312 13.25V36.4375C48.0312 37.7553 47.5078 39.0191 46.5759 39.9509C45.6441 40.8828 44.3803 41.4062 43.0625 41.4062H9.9375C8.61971 41.4062 7.35588 40.8828 6.42406 39.9509C5.49224 39.0191 4.96875 37.7553 4.96875 36.4375V13.25C4.96875 11.9322 5.49224 10.6684 6.42406 9.73656C7.35588 8.80474 8.61971 8.28125 9.9375 8.28125H43.0625C44.3803 8.28125 45.6441 8.80474 46.5759 9.73656C47.5078 10.6684 48.0312 11.9322 48.0312 13.25ZM33.125 44.7188H19.875C19.4357 44.7188 19.0145 44.8932 18.7039 45.2039C18.3932 45.5145 18.2188 45.9357 18.2188 46.375C18.2188 46.8143 18.3932 47.2355 18.7039 47.5461C19.0145 47.8568 19.4357 48.0312 19.875 48.0312H33.125C33.5643 48.0312 33.9855 47.8568 34.2961 47.5461C34.6068 47.2355 34.7812 46.8143 34.7812 46.375C34.7812 45.9357 34.6068 45.5145 34.2961 45.2039C33.9855 44.8932 33.5643 44.7188 33.125 44.7188Z" fill="white"/>
</g>
</svg>
